<svg xmlns="http://www.w3.org/2000/svg" viewBox="0 0 1400 900"><defs><linearGradient id="sky" x2="0" y2="1"><stop stop-color="#0d2636"/><stop offset="1" stop-color="#748589"/></linearGradient><linearGradient id="ground" x2="0" y2="1"><stop stop-color="#98a4a2"/><stop offset="1" stop-color="#253e48"/></linearGradient><radialGradient id="moon"><stop stop-color="#e4d7aa" stop-opacity=".23"/><stop offset="1" stop-color="#e4d7aa" stop-opacity="0"/></radialGradient><filter id="grain"><feTurbulence baseFrequency=".7" numOctaves="3" seed="11"/><feColorMatrix type="saturate" values="0"/><feComponentTransfer><feFuncA type="linear" slope=".07"/></feComponentTransfer><feBlend in="SourceGraphic" mode="soft-light"/></filter></defs><g filter="url(#grain)"><path fill="url(#sky)" d="M0 0h1400v900H0z"/><circle cx="1080" cy="175" r="170" fill="url(#moon)"/><circle cx="1080" cy="175" r="31" fill="#d5d6bd"/><g transform="translate(590 285) scale(0.9)" fill="#243e46"><path d="M0 0-30 70-15 68-50 124-30 120-72 185-40 177-94 248H94L40 177 72 185 30 120 50 124 15 68 30 70Z"/><path d="M-5 230H5V290H-5Z"/></g><g transform="translate(1280 225) scale(1.3)" fill="#28464e"><path d="M0 0-30 70-15 68-50 124-30 120-72 185-40 177-94 248H94L40 177 72 185 30 120 50 124 15 68 30 70Z"/><path d="M-5 230H5V290H-5Z"/></g><g transform="translate(490 340) scale(0.65)" fill="#334e52"><path d="M0 0-30 70-15 68-50 124-30 120-72 185-40 177-94 248H94L40 177 72 185 30 120 50 124 15 68 30 70Z"/><path d="M-5 230H5V290H-5Z"/></g><path d="M0 600Q480 510 900 570T1400 540V900H0Z" fill="url(#ground)"/><path d="M580 327h665v251H580Z" fill="#384f59"/><path d="M565 326h697v16H565Z" fill="#bdc4b9"/><path d="M601 344h631v226H601Z" fill="#3b515a"/><rect x="630" y="355" width="42" height="49" fill="#51616a"/><path d="M651 355v49m-21-24h42" stroke="#263c48" stroke-width="3"/><rect x="702" y="355" width="42" height="49" fill="#51616a"/><path d="M723 355v49m-21-24h42" stroke="#263c48" stroke-width="3"/><rect x="774" y="355" width="42" height="49" fill="#51616a"/><path d="M795 355v49m-21-24h42" stroke="#263c48" stroke-width="3"/><rect x="846" y="355" width="42" height="49" fill="#51616a"/><path d="M867 355v49m-21-24h42" stroke="#263c48" stroke-width="3"/><rect x="918" y="355" width="42" height="49" fill="#51616a"/><path d="M939 355v49m-21-24h42" stroke="#263c48" stroke-width="3"/><rect x="990" y="355" width="42" height="49" fill="#ceaa73"/><path d="M1011 355v49m-21-24h42" stroke="#263c48" stroke-width="3"/><rect x="1062" y="355" width="42" height="49" fill="#51616a"/><path d="M1083 355v49m-21-24h42" stroke="#263c48" stroke-width="3"/><rect x="1134" y="355" width="42" height="49" fill="#51616a"/><path d="M1155 355v49m-21-24h42" stroke="#263c48" stroke-width="3"/><rect x="630" y="427" width="42" height="49" fill="#51616a"/><path d="M651 427v49m-21-24h42" stroke="#263c48" stroke-width="3"/><rect x="702" y="427" width="42" height="49" fill="#51616a"/><path d="M723 427v49m-21-24h42" stroke="#263c48" stroke-width="3"/><rect x="774" y="427" width="42" height="49" fill="#ceaa73"/><path d="M795 427v49m-21-24h42" stroke="#263c48" stroke-width="3"/><rect x="846" y="427" width="42" height="49" fill="#51616a"/><path d="M867 427v49m-21-24h42" stroke="#263c48" stroke-width="3"/><rect x="918" y="427" width="42" height="49" fill="#51616a"/><path d="M939 427v49m-21-24h42" stroke="#263c48" stroke-width="3"/><rect x="990" y="427" width="42" height="49" fill="#51616a"/><path d="M1011 427v49m-21-24h42" stroke="#263c48" stroke-width="3"/><rect x="1062" y="427" width="42" height="49" fill="#51616a"/><path d="M1083 427v49m-21-24h42" stroke="#263c48" stroke-width="3"/><rect x="1134" y="427" width="42" height="49" fill="#51616a"/><path d="M1155 427v49m-21-24h42" stroke="#263c48" stroke-width="3"/><rect x="630" y="499" width="42" height="49" fill="#51616a"/><path d="M651 499v49m-21-24h42" stroke="#263c48" stroke-width="3"/><rect x="702" y="499" width="42" height="49" fill="#51616a"/><path d="M723 499v49m-21-24h42" stroke="#263c48" stroke-width="3"/><rect x="774" y="499" width="42" height="49" fill="#51616a"/><path d="M795 499v49m-21-24h42" stroke="#263c48" stroke-width="3"/><rect x="846" y="499" width="42" height="49" fill="#ceaa73"/><path d="M867 499v49m-21-24h42" stroke="#263c48" stroke-width="3"/><rect x="918" y="499" width="42" height="49" fill="#51616a"/><path d="M939 499v49m-21-24h42" stroke="#263c48" stroke-width="3"/><rect x="990" y="499" width="42" height="49" fill="#ceaa73"/><path d="M1011 499v49m-21-24h42" stroke="#263c48" stroke-width="3"/><rect x="1062" y="499" width="42" height="49" fill="#51616a"/><path d="M1083 499v49m-21-24h42" stroke="#263c48" stroke-width="3"/><rect x="1134" y="499" width="42" height="49" fill="#51616a"/><path d="M1155 499v49m-21-24h42" stroke="#263c48" stroke-width="3"/><path d="M828 317v-82h179v82Z" fill="#3c535d"/><path d="m812 236 106-73 107 73Z" fill="#b6c0b9"/><path d="m839 228 79-53 78 53Z" fill="#273e49"/><circle cx="917" cy="273" r="23" fill="#c7c4a7"/><path d="M917 257v16l12 7" fill="none" stroke="#34434c" stroke-width="3"/><path d="M866 578V480h95v98" fill="#1d3542"/><path d="M876 490h74v89h-74Z" fill="#b99668" opacity=".7"/><path d="M913 490v89" stroke="#243e48" stroke-width="4"/><path d="M500 604q340-48 890-8" stroke="#c1c7bc" stroke-width="3" fill="none"/><path d="m879 579-334 321h704L950 579Z" fill="#a1a49b" opacity=".28"/><g transform="translate(1290 400) scale(1.6)" fill="#17303b"><path d="M0 0-30 70-15 68-50 124-30 120-72 185-40 177-94 248H94L40 177 72 185 30 120 50 124 15 68 30 70Z"/><path d="M-5 230H5V290H-5Z"/></g><g transform="translate(1370 333) scale(1.9)" fill="#112b36"><path d="M0 0-30 70-15 68-50 124-30 120-72 185-40 177-94 248H94L40 177 72 185 30 120 50 124 15 68 30 70Z"/><path d="M-5 230H5V290H-5Z"/></g><path d="M0 730Q310 620 610 731T1400 741V900H0Z" fill="#24414c"/><path d="M470 731q270-31 588 27l-14 17q-291-45-574-29" fill="#9ba8a2"/><ellipse cx="990" cy="806" rx="184" ry="34" fill="#112c37" opacity=".6"/><g transform="translate(984 676) scale(.88)"><g><path d="M-105-35 0-80 115-38 8 10Z" fill="#a44b3a"/><path d="M-105-35 8 10 8 130-105 77Z" fill="#81382e"/><path d="M8 10 115-38 115 79 8 130Z" fill="#5d2928"/><path d="m-115-45 115-49 126 46-118 53Z" fill="#b85b47"/><path d="m-115-45 123 50v20L-115-24Z" fill="#994232"/><path d="m8 5 118-53v22L8 25Z" fill="#72312a"/><path d="m-66-66 122 48 0 127-22 11V-11L-88-55Z" fill="#cba873"/><path d="m56-73-119 51v120l20 9V-12L78-65Z" fill="#e0c28c"/><path d="M0-74C-75-149-95-59 0-74 80-138 103-65 0-74Z" fill="none" stroke="#e0c28c" stroke-width="13"/><path d="M0-74-18-18M0-74 34-30" fill="none" stroke="#e0c28c" stroke-width="9"/><path d="m50-5 38-15 2 46-35 14Z" fill="#eee1bd"/><circle cx="59" cy="3" r="3" fill="#744536"/></g></g><path d="M133 900 160 0M160 242 78 138M157 389 277 236M144 610 27 437" stroke="#09232f" stroke-width="22" fill="none"/><path d="m78 139-15-83m15 83-61-29m260 126 3-100m-3 100 89-59" stroke="#09232f" stroke-width="9" fill="none"/><circle cx="51" cy="23" r="2" fill="#eef2e8" opacity="0.15"/><circle cx="224" cy="120" r="1" fill="#eef2e8" opacity="0.25"/><circle cx="397" cy="217" r="1" fill="#eef2e8" opacity="0.35"/><circle cx="570" cy="314" r="1" fill="#eef2e8" opacity="0.45000000000000007"/><circle cx="743" cy="411" r="2" fill="#eef2e8" opacity="0.55"/><circle cx="916" cy="508" r="1" fill="#eef2e8" opacity="0.15"/><circle cx="1089" cy="605" r="1" fill="#eef2e8" opacity="0.25"/><circle cx="1262" cy="702" r="1" fill="#eef2e8" opacity="0.35"/><circle cx="35" cy="799" r="2" fill="#eef2e8" opacity="0.45000000000000007"/><circle cx="208" cy="56" r="1" fill="#eef2e8" opacity="0.55"/><circle cx="381" cy="153" r="1" fill="#eef2e8" opacity="0.15"/><circle cx="554" cy="250" r="1" fill="#eef2e8" opacity="0.25"/><circle cx="727" cy="347" r="2" fill="#eef2e8" opacity="0.35"/><circle cx="900" cy="444" r="1" fill="#eef2e8" opacity="0.45000000000000007"/><circle cx="1073" cy="541" r="1" fill="#eef2e8" opacity="0.55"/><circle cx="1246" cy="638" r="1" fill="#eef2e8" opacity="0.15"/><circle cx="19" cy="735" r="2" fill="#eef2e8" opacity="0.25"/><circle cx="192" cy="832" r="1" fill="#eef2e8" opacity="0.35"/><circle cx="365" cy="89" r="1" fill="#eef2e8" opacity="0.45000000000000007"/><circle cx="538" cy="186" r="1" fill="#eef2e8" opacity="0.55"/><circle cx="711" cy="283" r="2" fill="#eef2e8" opacity="0.15"/><circle cx="884" cy="380" r="1" fill="#eef2e8" opacity="0.25"/><circle cx="1057" cy="477" r="1" fill="#eef2e8" opacity="0.35"/><circle cx="1230" cy="574" r="1" fill="#eef2e8" opacity="0.45000000000000007"/><circle cx="3" cy="671" r="2" fill="#eef2e8" opacity="0.55"/><circle cx="176" cy="768" r="1" fill="#eef2e8" opacity="0.15"/><circle cx="349" cy="25" r="1" fill="#eef2e8" opacity="0.25"/><circle cx="522" cy="122" r="1" fill="#eef2e8" opacity="0.35"/><circle cx="695" cy="219" r="2" fill="#eef2e8" opacity="0.45000000000000007"/><circle cx="868" cy="316" r="1" fill="#eef2e8" opacity="0.55"/><circle cx="1041" cy="413" r="1" fill="#eef2e8" opacity="0.15"/><circle cx="1214" cy="510" r="1" fill="#eef2e8" opacity="0.25"/><circle cx="1387" cy="607" r="2" fill="#eef2e8" opacity="0.35"/><circle cx="160" cy="704" r="1" fill="#eef2e8" opacity="0.45000000000000007"/><circle cx="333" cy="801" r="1" fill="#eef2e8" opacity="0.55"/><circle cx="506" cy="58" r="1" fill="#eef2e8" opacity="0.15"/><circle cx="679" cy="155" r="2" fill="#eef2e8" opacity="0.25"/><circle cx="852" cy="252" r="1" fill="#eef2e8" opacity="0.35"/><circle cx="1025" cy="349" r="1" fill="#eef2e8" opacity="0.45000000000000007"/><circle cx="1198" cy="446" r="1" fill="#eef2e8" opacity="0.55"/><circle cx="1371" cy="543" r="2" fill="#eef2e8" opacity="0.15"/><circle cx="144" cy="640" r="1" fill="#eef2e8" opacity="0.25"/><circle cx="317" cy="737" r="1" fill="#eef2e8" opacity="0.35"/><circle cx="490" cy="834" r="1" fill="#eef2e8" opacity="0.45000000000000007"/><circle cx="663" cy="91" r="2" fill="#eef2e8" opacity="0.55"/><circle cx="836" cy="188" r="1" fill="#eef2e8" opacity="0.15"/><circle cx="1009" cy="285" r="1" fill="#eef2e8" opacity="0.25"/><circle cx="1182" cy="382" r="1" fill="#eef2e8" opacity="0.35"/><circle cx="1355" cy="479" r="2" fill="#eef2e8" opacity="0.45000000000000007"/><circle cx="128" cy="576" r="1" fill="#eef2e8" opacity="0.55"/><circle cx="301" cy="673" r="1" fill="#eef2e8" opacity="0.15"/><circle cx="474" cy="770" r="1" fill="#eef2e8" opacity="0.25"/><circle cx="647" cy="27" r="2" fill="#eef2e8" opacity="0.35"/><circle cx="820" cy="124" r="1" fill="#eef2e8" opacity="0.45000000000000007"/><circle cx="993" cy="221" r="1" fill="#eef2e8" opacity="0.55"/><circle cx="1166" cy="318" r="1" fill="#eef2e8" opacity="0.15"/><circle cx="1339" cy="415" r="2" fill="#eef2e8" opacity="0.25"/><circle cx="112" cy="512" r="1" fill="#eef2e8" opacity="0.35"/><circle cx="285" cy="609" r="1" fill="#eef2e8" opacity="0.45000000000000007"/><circle cx="458" cy="706" r="1" fill="#eef2e8" opacity="0.55"/><circle cx="631" cy="803" r="2" fill="#eef2e8" opacity="0.15"/><circle cx="804" cy="60" r="1" fill="#eef2e8" opacity="0.25"/><circle cx="977" cy="157" r="1" fill="#eef2e8" opacity="0.35"/><circle cx="1150" cy="254" r="1" fill="#eef2e8" opacity="0.45000000000000007"/><circle cx="1323" cy="351" r="2" fill="#eef2e8" opacity="0.55"/><circle cx="96" cy="448" r="1" fill="#eef2e8" opacity="0.15"/><circle cx="269" cy="545" r="1" fill="#eef2e8" opacity="0.25"/><circle cx="442" cy="642" r="1" fill="#eef2e8" opacity="0.35"/><circle cx="615" cy="739" r="2" fill="#eef2e8" opacity="0.45000000000000007"/><circle cx="788" cy="836" r="1" fill="#eef2e8" opacity="0.55"/><circle cx="961" cy="93" r="1" fill="#eef2e8" opacity="0.15"/><circle cx="1134" cy="190" r="1" fill="#eef2e8" opacity="0.25"/><circle cx="1307" cy="287" r="2" fill="#eef2e8" opacity="0.35"/><circle cx="80" cy="384" r="1" fill="#eef2e8" opacity="0.45000000000000007"/><circle cx="253" cy="481" r="1" fill="#eef2e8" opacity="0.55"/><circle cx="426" cy="578" r="1" fill="#eef2e8" opacity="0.15"/><circle cx="599" cy="675" r="2" fill="#eef2e8" opacity="0.25"/><circle cx="772" cy="772" r="1" fill="#eef2e8" opacity="0.35"/><circle cx="945" cy="29" r="1" fill="#eef2e8" opacity="0.45000000000000007"/><circle cx="1118" cy="126" r="1" fill="#eef2e8" opacity="0.55"/><circle cx="1291" cy="223" r="2" fill="#eef2e8" opacity="0.15"/><circle cx="64" cy="320" r="1" fill="#eef2e8" opacity="0.25"/><circle cx="237" cy="417" r="1" fill="#eef2e8" opacity="0.35"/><circle cx="410" cy="514" r="1" fill="#eef2e8" opacity="0.45000000000000007"/><circle cx="583" cy="611" r="2" fill="#eef2e8" opacity="0.55"/><circle cx="756" cy="708" r="1" fill="#eef2e8" opacity="0.15"/><circle cx="929" cy="805" r="1" fill="#eef2e8" opacity="0.25"/><circle cx="1102" cy="62" r="1" fill="#eef2e8" opacity="0.35"/><circle cx="1275" cy="159" r="2" fill="#eef2e8" opacity="0.45000000000000007"/><circle cx="48" cy="256" r="1" fill="#eef2e8" opacity="0.55"/><circle cx="221" cy="353" r="1" fill="#eef2e8" opacity="0.15"/><circle cx="394" cy="450" r="1" fill="#eef2e8" opacity="0.25"/><circle cx="567" cy="547" r="2" fill="#eef2e8" opacity="0.35"/><circle cx="740" cy="644" r="1" fill="#eef2e8" opacity="0.45000000000000007"/><circle cx="913" cy="741" r="1" fill="#eef2e8" opacity="0.55"/></g></svg>